# 3ds Max Wavefront OBJ Exporter v0.99 - (c)2007 guruware
# File Created: 13.04.2021 20:40:37

mtllib Console Table 2.mtl

#
# object Box001
#

v  -9.665110 0.000000 7.702117
v  -9.307268 0.000000 7.702117
v  -1.816293 0.000000 -7.958884
v  -1.458452 0.000000 -7.958884
v  -5.898420 30.609825 7.702117
v  -1.743240 30.609825 7.702117
v  -9.665110 30.609825 -7.958884
v  -9.307268 30.609825 -7.958884
v  -1.743240 29.883837 7.702117
v  -5.898420 29.883837 7.702117
v  -9.665110 29.883837 -7.958884
v  -9.307268 29.883837 -7.958884
v  38.563782 30.609825 -7.958884
v  33.236664 30.609825 7.702117
v  33.236664 29.883837 7.702117
v  38.563782 29.883837 -7.958884
v  37.942558 29.883837 -7.958884
v  29.414068 29.883837 7.702117
v  29.414068 30.609825 7.702117
v  37.942558 30.609825 -7.958884
v  30.357016 -1.074688 -7.958884
v  38.563782 -1.074688 7.702117
v  37.942558 -1.074688 7.702117
v  29.735792 -1.074688 -7.958884
# 24 vertices

vn -0.742740 -0.516954 0.425554
vn -0.347869 -0.649828 -0.675804
vn 0.776531 -0.473582 -0.415596
vn 0.350313 -0.648509 0.675808
vn -0.499297 0.590830 0.633736
vn 0.000000 0.707107 0.707107
vn 0.000000 0.707107 -0.707107
vn -0.647461 0.565986 -0.510347
vn 0.274446 -0.500976 0.820794
vn -0.602205 0.037458 0.797462
vn 0.221159 -0.135655 -0.965757
vn -0.800784 -0.101485 -0.590293
vn 0.826209 -0.104882 -0.553515
vn 0.672464 0.562040 -0.481563
vn 0.467266 0.596579 0.652500
vn 0.559056 0.046933 0.827801
vn -0.265395 -0.518869 0.812613
vn -0.212512 -0.127632 -0.968787
vn -0.780979 -0.471883 -0.409143
vn 0.341482 -0.650743 -0.678176
vn 0.758791 -0.501409 0.415722
vn -0.338869 -0.652129 0.678156
# 22 vertex normals

vt 1.000000 0.000000 0.000000
vt 1.000000 1.000000 0.000000
vt 0.000000 1.000000 0.000000
vt 0.000000 0.000000 0.000000
vt 1.000000 0.976282 0.000000
vt 0.000000 0.976282 0.000000
# 6 texture coords

o Box001
g Box001
usemtl wire_087225143
s 2
f -24/-6/-22 -22/-5/-21 -21/-4/-20 -23/-3/-19 
s 4
f -20/-3/-18 -19/-6/-17 -17/-5/-16 -18/-4/-15 
s 8
f -24/-3/-22 -23/-6/-19 -16/-2/-14 -15/-1/-13 
s 16
f -23/-3/-19 -21/-6/-20 -13/-2/-12 -16/-1/-14 
s 32
f -21/-3/-20 -22/-6/-21 -14/-2/-11 -13/-1/-12 
s 64
f -22/-3/-21 -24/-6/-22 -15/-2/-13 -14/-1/-11 
s 8
f -16/-2/-14 -19/-5/-17 -20/-4/-18 -15/-1/-13 
s 16
f -9/-2/-10 -12/-5/-9 -11/-4/-8 -10/-1/-7 
s 32
f -14/-2/-11 -18/-5/-15 -17/-4/-16 -13/-1/-12 
s 64
f -15/-2/-13 -20/-5/-18 -18/-4/-15 -14/-1/-11 
s off
f -17/-5/-16 -19/-4/-17 -6/-4/-17 -5/-5/-16 
f -19/-4/-17 -16/-1/-14 -7/-1/-6 -6/-4/-17 
f -16/-1/-14 -13/-2/-12 -8/-2/-5 -7/-1/-6 
f -13/-2/-12 -17/-5/-16 -5/-5/-16 -8/-2/-5 
f -6/-4/-17 -11/-4/-8 -12/-5/-9 -5/-5/-16 
f -7/-1/-6 -10/-1/-7 -11/-4/-8 -6/-4/-17 
f -1/-2/-4 -4/-2/-3 -3/-1/-2 -2/-1/-1 
f -5/-5/-16 -12/-5/-9 -9/-2/-10 -8/-2/-5 
f -9/-2/-10 -10/-1/-7 -3/-1/-2 -4/-2/-3 
f -10/-1/-7 -7/-1/-6 -2/-1/-1 -3/-1/-2 
f -7/-1/-6 -8/-2/-5 -1/-2/-4 -2/-1/-1 
f -8/-2/-5 -9/-2/-10 -4/-2/-3 -1/-2/-4 
# 22 polygons

