<?xml version="1.0" encoding="utf-8"?>
<!-- Generator: Adobe Illustrator 25.0.1, SVG Export Plug-In . SVG Version: 6.00 Build 0)  -->
<svg version="1.1" id="Layer_1" xmlns="http://www.w3.org/2000/svg" xmlns:xlink="http://www.w3.org/1999/xlink" x="0px" y="0px"
	 viewBox="0 0 393.4 300.7" style="enable-background:new 0 0 393.4 300.7;" xml:space="preserve">
<style type="text/css">
	.st0{fill:#FFFFFF;stroke:#000000;stroke-width:2;stroke-miterlimit:10;}
	.st1{fill:#FFFFFF;stroke:#000000;stroke-miterlimit:10;}
	.st2{fill:none;stroke:#000000;stroke-miterlimit:10;}
	.st3{fill:none;stroke:#000000;stroke-width:2;stroke-miterlimit:10;}
</style>
<path class="st0" d="M182.7,0"/>
<path class="st1" d="M308.9-60.9"/>
<path class="st1" d="M353,36.4L58.8,280.1c-5.2,4.2-12.4,3-16.2-2.8c-1.4-2.3-2.2-5-2.2-7.8V57.1c0-11.5,8.2-20.8,18.4-20.8H353"/>
<path class="st2" d="M278.7,13.1h30.7c7.5,0,13.6,4.4,13.6,9.9v5h-44.4V13.1z"/>
<ellipse class="st1" cx="208.4" cy="164.8" rx="75.2" ry="76.4"/>
<path class="st3" d="M228.5,81.9"/>
<path class="st3" d="M40.4,36.4"/>
<path class="st3" d="M193,253.4"/>
<path class="st1" d="M143.1,210.3"/>
<path class="st1" d="M112.9,81.9H80.3c-4.6,0-8.3-3.7-8.3-8.3V67h48.9v6.9C120.9,78.3,117.3,81.9,112.9,81.9z"/>
</svg>
