<svg id="Layer_1" data-name="Layer 1" xmlns="http://www.w3.org/2000/svg" viewBox="0 0 503.33 503.33"><defs><style>.cls-1,.cls-2{fill:#e6e7e8;stroke:#231f20;stroke-miterlimit:10;}.cls-1{stroke-width:3px;}</style></defs><rect class="cls-1" x="1.5" y="1.5" width="500.33" height="500.33" rx="79.67"/><path class="cls-2" d="M229,190.83h65a0,0,0,0,1,0,0V398.17a20,20,0,0,1-20,20H229a20,20,0,0,1-20-20V210.83A20,20,0,0,1,229,190.83Z"/><path class="cls-2" d="M229,84.83h45a20,20,0,0,1,20,20v65a0,0,0,0,1,0,0H229a20,20,0,0,1-20-20v-45A20,20,0,0,1,229,84.83Z"/><path class="cls-2" d="M250,125.84c-42.51,78.83-42.51,26.83,0,105.49" transform="translate(1.5 1.5)"/></svg>